<svg version="1.1" id="Layer_1" xmlns="http://www.w3.org/2000/svg" xmlns:xlink="http://www.w3.org/1999/xlink" x="0px" y="0px"
	 viewBox="0 0 270 50" style="enable-background:new 0 0 265.5 46.6;" xml:space="preserve">
<g>
	<path d="M55.3,42c0,0.5-0.2,1-0.7,1.5c-0.5,0.5-1,1-1.7,1.5c-0.7,0.5-1.4,0.8-2.1,1.1c-0.7,0.3-1.4,0.4-2,0.4
		c-0.9,0-1.8-0.1-2.6-0.4s-1.6-0.6-2.2-1s-1.1-1-1.5-1.6c-0.4-0.6-0.6-1.3-0.6-2V16.1c-0.3,2.1-0.8,4.1-1.7,6.1
		c-0.9,2-2,3.7-3.3,5.2c-1.3,1.5-2.7,2.8-4.3,3.7c-1.6,0.9-3.2,1.4-4.8,1.4c-1.7,0-3.3-0.5-4.9-1.4c-1.6-0.9-3-2.1-4.3-3.7
		c-1.3-1.5-2.4-3.2-3.3-5.2s-1.4-4-1.7-6.1v19.6c0,0.8,0.8,2,2.4,3.6c1.7,1.6,2.5,2.6,2.5,2.8c0,0.5-0.2,1-0.7,1.5
		c-0.5,0.5-1,1-1.7,1.5c-0.7,0.5-1.4,0.8-2.1,1.1c-0.7,0.3-1.4,0.4-2,0.4c-0.9,0-1.7-0.1-2.6-0.4c-0.8-0.2-1.6-0.6-2.2-1
		c-0.7-0.4-1.2-1-1.6-1.6c-0.4-0.6-0.6-1.3-0.6-2V11c0-0.8-0.8-2-2.4-3.6C0.8,5.8,0,4.8,0,4.5c0-0.5,0.2-1,0.7-1.5
		c0.5-0.5,1-1,1.7-1.5s1.4-0.8,2.1-1.1C5.3,0.1,6,0,6.6,0c3.8,0,6.1,1.6,6.8,4.9c3.5,15.9,8.1,23.8,13.9,23.8c6.2,0,11-6,14.5-18
		c-0.1-0.3-0.4-0.8-0.9-1.4c-0.5-0.6-1-1.3-1.6-2S38.2,6,37.7,5.5C37.2,4.9,37,4.6,37,4.5c0-0.5,0.2-1,0.7-1.5c0.5-0.5,1-1,1.7-1.5
		c0.7-0.5,1.4-0.8,2.1-1.1C42.3,0.1,43,0,43.6,0c0.9,0,1.7,0.1,2.5,0.4c0.8,0.2,1.5,0.6,2.2,1c0.7,0.4,1.2,1,1.6,1.6
		c0.4,0.6,0.6,1.2,0.6,1.9v30.8c0,0.8,0.8,2,2.4,3.6C54.5,40.9,55.3,41.8,55.3,42z"/>
	<path d="M104.5,22.1c0,3.5-0.6,6.7-1.7,9.8c-1.1,3-2.7,5.7-4.7,8c-2,2.3-4.4,4-7.2,5.3c-2.8,1.3-5.8,2-9,2c-3.1,0-6-0.6-8.7-1.8
		c-2.7-1.2-5-2.8-6.9-4.9c-1.9-2.1-3.4-4.5-4.5-7.4c-1.1-2.8-1.6-5.9-1.6-9.2c0-3.5,0.6-6.7,1.7-9.7c1.1-3,2.7-5.5,4.7-7.7
		c2-2.1,4.4-3.8,7.2-5.1c2.8-1.2,5.9-1.8,9.3-1.8c3.2,0,6.1,0.6,8.7,1.7c2.6,1.1,4.9,2.7,6.8,4.6c1.9,2,3.3,4.4,4.4,7.1
		C104,15.8,104.5,18.8,104.5,22.1z M95,26.1c0-3.3-0.3-6.3-1-9.1c-0.7-2.8-1.6-5.3-2.8-7.4c-1.2-2.1-2.7-3.7-4.4-4.9
		c-1.7-1.2-3.6-1.8-5.7-1.8c-1.9,0-3.5,0.4-4.9,1.2c-1.4,0.8-2.6,1.9-3.6,3.4s-1.7,3.2-2.2,5.3c-0.5,2.1-0.8,4.4-0.8,7
		c0,3.5,0.3,6.6,1,9.6c0.7,2.9,1.6,5.5,2.8,7.7c1.2,2.2,2.7,3.9,4.4,5.1c1.7,1.2,3.7,1.8,5.9,1.8C91.2,44,95,38,95,26.1z"/>
</g>
<g style="opacity:.3">
	<path d="M139.8,12.5c0.8,1,1.2,2.2,1.2,3.6c0,3.5-3.5,9.7-10.4,18.5c-6.6,8.4-10.5,12.5-11.8,12.5c-0.4,0-0.7-0.5-0.8-1.6
		c-0.1-0.6-0.1-1.6-0.1-3c0-1.7-0.2-4.7-0.5-8.9c-0.3-4.2-0.7-7.3-1-9.3c-0.7-4.4-1.3-7.2-1.9-8.5c-0.6-1.3-1.8-1.9-3.6-1.9
		c-0.3,0-0.6,0-1,0c-0.4,0-0.8,0.1-1.3,0.1v-1c0.8-0.2,2.4-0.5,4.9-1.1c2.5-0.5,3.8-0.8,4-0.9l1.3-0.4c0.4-0.1,0.6,0.1,0.9,0.6
		c0.2,0.5,0.5,1.5,0.8,2.8c1,4.5,1.7,9,2.2,13.4c0.3,2.7,0.6,6.8,0.9,12.1l1.3-1.4c2.7-2.8,5.4-6.2,8-10.1c2.7-3.9,4-6.7,4-8.3
		c0-0.8-0.6-1.8-1.8-2.9s-1.8-2.2-1.8-3.1c0-0.9,0.3-1.6,0.9-2.1s1.3-0.8,2.2-0.8C137.9,10.9,139.1,11.4,139.8,12.5z"/>
</g>
<g>
	<path d="M184,36c0,1.6-0.5,3-1.4,4.3c-0.9,1.3-2.1,2.5-3.6,3.5c-1.5,1-3.3,1.8-5.2,2.4c-2,0.6-4.1,0.9-6.2,0.9
		c-3.1,0-6-0.6-8.7-1.8c-2.7-1.2-5-2.8-6.9-4.9c-1.9-2.1-3.4-4.5-4.5-7.4c-1.1-2.8-1.6-5.9-1.6-9.2c0-3.5,0.6-6.7,1.7-9.7
		c1.1-3,2.7-5.5,4.7-7.7c2-2.1,4.4-3.8,7.2-5.1c2.8-1.2,5.9-1.8,9.3-1.8c2,0,3.9,0.3,5.8,0.9c1.9,0.6,3.5,1.4,4.9,2.4
		c1.4,1,2.5,2.2,3.4,3.6c0.8,1.4,1.3,2.9,1.3,4.5c0,3-1.4,4.5-4.3,4.5c-2.5,0-4.1-1.1-4.8-3.3L173,6.2c-1.1-2.2-3.2-3.3-6.3-3.3
		c-1.8,0-3.3,0.4-4.7,1.1c-1.4,0.7-2.6,1.8-3.6,3.2s-1.7,3-2.3,5c-0.6,1.9-0.9,4.1-1,6.5h14.8c4.2,0,6.2,2.1,6.2,6.3
		c0,0.7-0.1,1.2-0.2,1.5s-0.4,0.5-0.7,0.6c-0.3,0.1-0.7,0.2-1.2,0.2c-0.5,0-1.1,0.2-1.9,0.4c-0.6,0.2-1.1,0.3-1.5,0.3
		c-0.4,0.1-0.8,0.1-1.1,0.1c-0.7,0-1.3-0.1-1.8-0.2c-0.5-0.1-0.9-0.3-1.3-0.6c-0.4-0.3-0.7-0.7-1-1.3c-0.3-0.6-0.5-1.3-0.7-2.2
		c-0.3-1-0.6-1.5-1-1.5h-8.6c0.2,3.2,0.6,6.1,1.3,8.8c0.7,2.6,1.6,4.9,2.7,6.8c1.1,1.9,2.4,3.4,4,4.4c1.5,1.1,3.2,1.6,5,1.6
		c2.6,0,4.3-1.1,5.2-3.2l1.6-6c0.8-2.1,2.3-3.2,4.6-3.2C182.6,31.5,184,33,184,36z"/>
	<path d="M207.3,42c0,0.5-0.2,1-0.7,1.5c-0.5,0.5-1,1-1.7,1.5c-0.7,0.5-1.4,0.8-2.1,1.1c-0.7,0.3-1.4,0.4-2,0.4
		c-0.9,0-1.7-0.1-2.6-0.4c-0.8-0.2-1.6-0.6-2.2-1c-0.7-0.4-1.2-1-1.6-1.6c-0.4-0.6-0.6-1.3-0.6-2V11c0-0.8-0.8-2-2.4-3.6
		c-1.6-1.6-2.4-2.5-2.4-2.8c0-0.5,0.2-1,0.7-1.5c0.5-0.5,1.1-1,1.8-1.5c0.7-0.5,1.4-0.8,2.1-1.1c0.7-0.3,1.4-0.4,2-0.4
		c0.8,0,1.7,0.1,2.5,0.4s1.6,0.6,2.2,1s1.1,1,1.5,1.6c0.4,0.6,0.6,1.2,0.6,1.9v30.8c0,0.8,0.8,2,2.4,3.7
		C206.4,40.9,207.3,41.8,207.3,42z"/>
	<path d="M265.5,7.2c0,0.7-0.1,1.2-0.2,1.5c-0.1,0.3-0.4,0.5-0.7,0.6c-0.3,0.1-0.7,0.2-1.2,0.2c-0.5,0-1.1,0.1-1.9,0.3
		c-1.2,0.3-2.1,0.4-2.6,0.4c-1.4,0-2.5-0.3-3.2-0.9s-1.2-1.7-1.6-3.3c-0.2-1-0.6-1.5-1-1.5h-11v31.1c0,0.8,0.8,2,2.4,3.7
		c1.7,1.6,2.5,2.5,2.5,2.7c0,0.5-0.2,1-0.7,1.6s-1.1,1-1.8,1.5c-0.7,0.4-1.4,0.8-2.2,1.1c-0.7,0.3-1.4,0.4-1.9,0.4
		c-0.9,0-1.7-0.1-2.6-0.4s-1.6-0.6-2.2-1c-0.7-0.4-1.2-1-1.6-1.6c-0.4-0.6-0.6-1.3-0.6-2V4.6h-11c-0.2,0-0.4,0.2-0.6,0.6
		c-0.2,0.4-0.4,0.8-0.6,1.3c-0.2,0.5-0.3,1-0.5,1.4c-0.1,0.5-0.3,0.8-0.4,0.9c-0.7,1-2,1.5-3.6,1.5c-0.3,0-0.6,0-1.1-0.1
		s-1-0.2-1.5-0.3s-1-0.2-1.5-0.3s-0.8-0.1-1.1-0.1c-0.9,0-1.4-0.8-1.4-2.3c0-4.2,2.1-6.3,6.2-6.3h42.8C263.4,0.9,265.5,3,265.5,7.2z
		"/>
</g>
</svg>
